<svg height="30" width="135" xmlns="http://www.w3.org/2000/svg"><g fill="none" fill-rule="evenodd"><circle cx="15.5" cy="16.5" fill="#393f43" r="12.5"/><path d="M28.298.816l.886.886L1.702 29.184l-.886-.886z" fill="#ffc4c4"/><path d="M18 23.642c0 .68-.243 1.242-.728 1.688S16.196 26 15.5 26s-1.287-.223-1.772-.67S13 24.321 13 23.642V7h1v16.642c0 .524.115.883.3 1.058s.651.3 1.2.3 1.007-.117 1.2-.3.3-.534.3-1.058V7h1z" fill="#aad9cc"/><path d="M46.692 24.677c0 .946-.415 1.73-1.245 2.35-.83.622-1.856.932-3.08.932-1.225 0-2.259-.31-3.102-.932-.843-.62-1.265-1.404-1.265-2.35V.122h.898v24.555c0 .73.333 1.351 1 1.864.666.514 1.489.77 2.468.77.953 0 1.769-.256 2.449-.77.68-.513 1.02-1.134 1.02-1.864V.122h.857zm4.08 3.282V7.172h.899V8.51c.408-.378.911-.695 1.51-.952s1.25-.385 1.958-.385c.599 0 1.163.088 1.694.264s.986.412 1.367.709c.38.297.687.648.918 1.053.231.405.347.824.347 1.256V27.96h-.857V10.454c0-.702-.34-1.317-1.02-1.843-.68-.527-1.497-.79-2.449-.79-.98 0-1.802.263-2.469.79-.666.526-1 1.141-1 1.843V27.96zm12.774 0V7.172h.897V8.51c.408-.378.912-.695 1.51-.952s1.252-.385 1.96-.385c.598 0 1.162.088 1.693.264s.986.412 1.367.709c.38.297.687.648.918 1.053.231.405.347.824.347 1.256V27.96h-.857V10.454c0-.702-.34-1.317-1.02-1.843-.68-.527-1.497-.79-2.449-.79-.98 0-1.802.263-2.469.79-.666.526-1 1.141-1 1.843V27.96zM84.154 28v-1.297a4.788 4.788 0 0 1-1.53.953 5.262 5.262 0 0 1-1.94.344c-1.223 0-2.257-.317-3.1-.952-.844-.635-1.266-1.412-1.266-2.33v-5.876c0-.432.116-.85.347-1.256.232-.405.538-.756.919-1.053.38-.298.836-.534 1.367-.71a5.49 5.49 0 0 1 1.734-.263 5.003 5.003 0 0 1 3.469 1.337v-6.402c0-.702-.34-1.317-1.02-1.844s-1.497-.79-2.45-.79c-.978 0-1.801.263-2.468.79s-1 1.142-1 1.844v2.148h-.898v-2.148c0-.432.116-.851.347-1.256.232-.405.538-.757.919-1.054.38-.297.836-.533 1.367-.709a5.49 5.49 0 0 1 1.734-.263c.598 0 1.163.088 1.693.263s.987.412 1.367.71c.381.296.687.648.919 1.053.23.405.347.824.347 1.256V28zm-6.938-3.282c0 .73.333 1.35 1 1.864.667.513 1.49.77 2.469.77.952 0 1.768-.257 2.448-.77.68-.514 1.02-1.135 1.02-1.864v-5.876c0-.702-.34-1.317-1.02-1.843s-1.496-.79-2.448-.79c-.98 0-1.802.263-2.469.79s-1 1.14-1 1.843zm17.344 3.241a5.766 5.766 0 0 1-1.694-.243c-.53-.162-.993-.391-1.387-.689s-.708-.648-.939-1.053a2.575 2.575 0 0 1-.347-1.297V7.821h-2.408v-.649h2.408V2.107h.898v5.065h3.673v.649H91.09v16.856c0 .73.36 1.351 1.081 1.864.721.514 1.599.77 2.632.77v.446zm11.548-3.282c0 .946-.415 1.73-1.245 2.35-.83.622-1.856.932-3.08.932s-2.259-.31-3.102-.932c-.843-.62-1.265-1.404-1.265-2.35V7.172h.898v17.505c0 .73.333 1.351 1 1.864.666.514 1.49.77 2.468.77.953 0 1.769-.256 2.449-.77.68-.513 1.02-1.134 1.02-1.864V7.172h.857zm4.08 3.282V7.172h.899V8.51a5.226 5.226 0 0 1 1.51-.952 4.918 4.918 0 0 1 1.958-.385c.599 0 1.163.095 1.694.284s.986.446 1.367.77c.38.324.687.695.918 1.114s.347.858.347 1.317h-.857c0-.378-.088-.743-.265-1.094-.177-.351-.422-.655-.735-.912s-.68-.459-1.102-.608-.877-.222-1.367-.222c-.98 0-1.802.263-2.469.79-.666.526-1 1.141-1 1.843V27.96zm19.058.041v-1.297a4.788 4.788 0 0 1-1.53.953 5.262 5.262 0 0 1-1.939.344c-1.224 0-2.258-.317-3.1-.952-.844-.635-1.266-1.412-1.266-2.33v-5.876c0-.432.116-.85.347-1.256s.537-.756.918-1.053.837-.534 1.367-.71a5.49 5.49 0 0 1 1.734-.263 5.003 5.003 0 0 1 3.47 1.337v-6.402c0-.702-.341-1.317-1.021-1.844s-1.496-.79-2.449-.79c-.979 0-1.802.263-2.468.79s-1 1.142-1 1.844v2.148h-.898v-2.148c0-.432.116-.851.347-1.256s.537-.757.918-1.054c.38-.297.837-.533 1.367-.709a5.49 5.49 0 0 1 1.734-.263c.599 0 1.163.088 1.694.263s.986.412 1.367.71c.38.296.687.648.918 1.053s.347.824.347 1.256V28zm-6.937-3.282c0 .73.333 1.35 1 1.864.666.513 1.49.77 2.468.77.953 0 1.769-.257 2.449-.77.68-.514 1.02-1.135 1.02-1.864v-5.876c0-.702-.34-1.317-1.02-1.843s-1.496-.79-2.449-.79c-.979 0-1.802.263-2.468.79s-1 1.14-1 1.843zm11.834 3.241V0H135v27.96z" fill="#393f43"/></g></svg>