<svg height="67" width="175" xmlns="http://www.w3.org/2000/svg">
    <g fill="none" fill-rule="evenodd">
        <path d="M34.5 66C17.655 66 4 52.569 4 36S17.655 6 34.5 6 65 19.431 65 36 51.345 66 34.5 66zm0-1.957c15.746 0 28.51-12.555 28.51-28.043S50.247 7.957 34.5 7.957 5.99 20.512 5.99 36 18.753 64.043 34.5 64.043z" fill="#f9f9ea" />
        <path d="M66.027.266l.707.707L.974 66.734l-.708-.707z" fill="#ffc4c4" />
        <g fill="#fff5ed">
            <path d="M41 54.105c0 1.698-.582 3.105-1.747 4.221C38.09 59.442 36.671 60 35 60s-3.089-.558-4.253-1.674C29.582 57.21 29 55.803 29 54.105V10h1.215v44.105c0 1.31.469 2.426 1.405 3.348.937.922 2.064 1.383 3.38 1.383s2.443-.461 3.38-1.383c.936-.922 1.405-2.038 1.405-3.348V10H41zM86.692 47.677c0 .946-.415 1.73-1.245 2.35-.83.622-1.856.932-3.08.932-1.225 0-2.259-.31-3.102-.932-.843-.62-1.265-1.404-1.265-2.35V23.122h.898v24.555c0 .73.333 1.351 1 1.864.666.514 1.489.77 2.468.77.953 0 1.769-.256 2.449-.77.68-.513 1.02-1.134 1.02-1.864V23.122h.857zm4.08 3.282V30.172h.899v1.337c.408-.378.911-.695 1.51-.952s1.25-.385 1.958-.385c.599 0 1.163.088 1.694.264s.986.412 1.367.709c.38.297.687.648.918 1.053s.347.824.347 1.256V50.96h-.857V33.454c0-.702-.34-1.317-1.02-1.843s-1.497-.79-2.449-.79c-.98 0-1.802.263-2.469.79-.666.526-1 1.141-1 1.843V50.96zm12.774 0V30.172h.897v1.337a5.226 5.226 0 0 1 1.51-.952 4.918 4.918 0 0 1 1.96-.385c.598 0 1.162.088 1.693.264.53.175.986.412 1.367.709.38.297.687.648.918 1.053s.347.824.347 1.256V50.96h-.857V33.454c0-.702-.34-1.317-1.02-1.843-.68-.527-1.497-.79-2.449-.79-.98 0-1.802.263-2.469.79-.666.526-1 1.141-1 1.843V50.96zm20.608.041v-1.297a4.788 4.788 0 0 1-1.53.953 5.262 5.262 0 0 1-1.94.344c-1.223 0-2.257-.317-3.1-.952-.844-.635-1.266-1.412-1.266-2.33v-5.876c0-.432.116-.85.347-1.256s.538-.756.919-1.053c.38-.298.836-.534 1.367-.71s1.108-.263 1.734-.263a5.003 5.003 0 0 1 3.469 1.337v-6.402c0-.702-.34-1.317-1.02-1.844-.68-.527-1.497-.79-2.45-.79-.978 0-1.801.263-2.468.79s-1 1.142-1 1.844v2.148h-.898v-2.148c0-.432.116-.851.347-1.256.232-.405.538-.757.919-1.054.38-.297.836-.533 1.367-.709s1.108-.263 1.734-.263c.598 0 1.163.088 1.693.263s.987.412 1.367.71c.381.296.687.648.919 1.053.23.405.347.824.347 1.256V51zm-6.938-3.282c0 .73.333 1.35 1 1.864.667.513 1.49.77 2.469.77.952 0 1.768-.257 2.448-.77.68-.514 1.02-1.135 1.02-1.864v-5.876c0-.702-.34-1.317-1.02-1.843-.68-.527-1.496-.79-2.448-.79-.98 0-1.802.263-2.469.79-.667.526-1 1.14-1 1.843zm17.344 3.241a5.766 5.766 0 0 1-1.694-.243 4.438 4.438 0 0 1-1.387-.689c-.395-.297-.708-.648-.939-1.053s-.347-.837-.347-1.297V30.821h-2.408v-.649h2.408v-5.065h.898v5.065h3.673v.649h-3.673v16.856c0 .73.36 1.351 1.081 1.864.721.514 1.599.77 2.632.77v.446zm11.548-3.282c0 .946-.415 1.73-1.245 2.35-.83.622-1.856.932-3.08.932s-2.259-.31-3.102-.932c-.843-.62-1.265-1.404-1.265-2.35V30.172h.898v17.505c0 .73.333 1.351 1 1.864.666.514 1.49.77 2.468.77.953 0 1.769-.256 2.449-.77.68-.513 1.02-1.134 1.02-1.864V30.172h.857zm4.08 3.282V30.172h.899v1.337a5.226 5.226 0 0 1 1.51-.952 4.918 4.918 0 0 1 1.958-.385c.599 0 1.163.095 1.694.284.53.189.986.446 1.367.77.38.324.687.695.918 1.114.231.419.347.858.347 1.317h-.857c0-.378-.088-.743-.265-1.094-.177-.351-.422-.655-.735-.912s-.68-.459-1.102-.608a4.086 4.086 0 0 0-1.367-.222c-.98 0-1.802.263-2.469.79-.666.526-1 1.141-1 1.843V50.96zm19.058.041v-1.297a4.788 4.788 0 0 1-1.53.953 5.262 5.262 0 0 1-1.939.344c-1.224 0-2.258-.317-3.1-.952-.844-.635-1.266-1.412-1.266-2.33v-5.876c0-.432.116-.85.347-1.256s.537-.756.918-1.053.837-.534 1.367-.71a5.49 5.49 0 0 1 1.734-.263 5.003 5.003 0 0 1 3.47 1.337v-6.402c0-.702-.341-1.317-1.021-1.844s-1.496-.79-2.449-.79c-.979 0-1.802.263-2.468.79s-1 1.142-1 1.844v2.148h-.898v-2.148c0-.432.116-.851.347-1.256.231-.405.537-.757.918-1.054s.837-.533 1.367-.709a5.49 5.49 0 0 1 1.734-.263c.599 0 1.163.088 1.694.263s.986.412 1.367.71.687.648.918 1.053c.231.405.347.824.347 1.256V51zm-6.937-3.282c0 .73.333 1.35 1 1.864.666.513 1.49.77 2.468.77.953 0 1.769-.257 2.449-.77.68-.514 1.02-1.135 1.02-1.864v-5.876c0-.702-.34-1.317-1.02-1.843s-1.496-.79-2.449-.79c-.979 0-1.802.263-2.468.79s-1 1.14-1 1.843zm11.834 3.241V23H175v27.96z" />
        </g>
    </g>
</svg>